<svg width="153" height="153" viewBox="0 0 153 153" fill="none" xmlns="http://www.w3.org/2000/svg">
<g clip-path="url(#clip0_13_3)">
<rect width="153" height="153" fill="none"/>
<path d="M40.45 145.5C35.05 145.5 30.15 144.15 25.75 141.45C21.35 138.75 17.8 135.15 15.1 130.65C12.5 126.05 11.2 120.95 11.2 115.35V67.8C11.2 62.4 12.5 57.45 15.1 52.95C17.8 48.35 21.35 44.7 25.75 42C30.25 39.3 35.15 37.95 40.45 37.95C45.95 37.95 50.9 39.3 55.3 42C59.8 44.6 63.35 48.15 65.95 52.65C68.55 57.15 69.85 62.2 69.85 67.8V74.7C69.85 75.1 69.6 75.3 69.1 75.3H52.3C51.9 75.3 51.7 75.1 51.7 74.7V69C51.7 65.2 50.6 62.05 48.4 59.55C46.3 57.05 43.65 55.8 40.45 55.8C37.55 55.8 34.95 57 32.65 59.4C30.45 61.8 29.35 64.6 29.35 67.8V115.35C29.35 118.65 30.45 121.5 32.65 123.9C34.85 126.2 37.45 127.35 40.45 127.35C43.65 127.35 46.3 126.2 48.4 123.9C50.6 121.6 51.7 118.75 51.7 115.35V108H41.2C40.7 108 40.45 107.75 40.45 107.25V90.45C40.45 89.95 40.7 89.7 41.2 89.7H69.25C69.65 89.7 69.85 89.95 69.85 90.45V115.35C69.85 120.95 68.5 126.05 65.8 130.65C63.2 135.15 59.7 138.75 55.3 141.45C50.9 144.15 45.95 145.5 40.45 145.5ZM108.129 145.5C102.629 145.5 97.6293 144.15 93.1293 141.45C88.7293 138.65 85.2293 134.95 82.6293 130.35C80.0293 125.75 78.7293 120.6 78.7293 114.9L78.8793 68.1C78.8793 62.6 80.1293 57.6 82.6293 53.1C85.2293 48.5 88.7293 44.85 93.1293 42.15C97.6293 39.35 102.629 37.95 108.129 37.95C113.629 37.95 118.579 39.3 122.979 42C127.379 44.7 130.879 48.35 133.479 52.95C136.079 57.45 137.379 62.5 137.379 68.1V75C137.379 75.4 137.179 75.6 136.779 75.6H119.979C119.579 75.6 119.379 75.4 119.379 75V68.1C119.379 64.8 118.279 61.95 116.079 59.55C113.979 57.15 111.329 55.95 108.129 55.95C104.529 55.95 101.779 57.2 99.8793 59.7C97.9793 62.1 97.0293 64.9 97.0293 68.1V114.9C97.0293 118.6 98.0793 121.6 100.179 123.9C102.379 126.2 105.029 127.35 108.129 127.35C111.329 127.35 113.979 126.1 116.079 123.6C118.279 121 119.379 118.1 119.379 114.9V108C119.379 107.6 119.579 107.4 119.979 107.4H136.929C137.329 107.4 137.529 107.6 137.529 108V114.9C137.529 120.6 136.179 125.75 133.479 130.35C130.879 134.95 127.379 138.65 122.979 141.45C118.579 144.15 113.629 145.5 108.129 145.5Z" fill="#5B8C5A"/>
<path d="M13.54 34C13.4467 34 13.4 33.9417 13.4 33.825L13.435 9.78C13.435 9.68667 13.4933 9.64 13.61 9.64H17.495C17.6117 9.64 17.67 9.68667 17.67 9.78L17.635 19.3H22.885V9.78C22.885 9.68667 22.9317 9.64 23.025 9.64H26.91C27.0267 9.64 27.085 9.68667 27.085 9.78L27.155 33.825C27.155 33.9417 27.0967 34 26.98 34H23.06C22.9433 34 22.885 33.9417 22.885 33.825V23.535H17.635V33.825C17.635 33.9417 17.5883 34 17.495 34H13.54ZM30.1513 34C30.058 34 30.0113 33.9417 30.0113 33.825L30.0463 9.78C30.0463 9.68667 30.093 9.64 30.1863 9.64H41.4213C41.5147 9.64 41.5613 9.69833 41.5613 9.815V13.735C41.5613 13.8283 41.5147 13.875 41.4213 13.875H34.2463V19.335H41.4213C41.5147 19.335 41.5613 19.3817 41.5613 19.475L41.5963 23.43C41.5963 23.5233 41.5497 23.57 41.4563 23.57H34.2463V29.695H41.4563C41.5497 29.695 41.5963 29.7533 41.5963 29.87V33.86C41.5963 33.9533 41.5497 34 41.4563 34H30.1513ZM45.0236 34C44.8369 34 44.7436 33.9183 44.7436 33.755L44.7086 9.92C44.7086 9.73333 44.8019 9.64 44.9886 9.64H48.1386L54.0536 23.43L53.8786 9.92C53.8786 9.73333 53.9836 9.64 54.1936 9.64H57.6586C57.7986 9.64 57.8686 9.73333 57.8686 9.92L57.9036 33.79C57.9036 33.93 57.8453 34 57.7286 34H54.6486L48.5936 21.12L48.8386 33.72C48.8386 33.9067 48.7336 34 48.5236 34H45.0236ZM61.2589 34C61.0723 34 60.9789 33.9183 60.9789 33.755L60.9439 9.92C60.9439 9.73333 61.0373 9.64 61.2239 9.64H64.3739L70.2889 23.43L70.1139 9.92C70.1139 9.73333 70.2189 9.64 70.4289 9.64H73.8939C74.0339 9.64 74.1039 9.73333 74.1039 9.92L74.1389 33.79C74.1389 33.93 74.0806 34 73.9639 34H70.8839L64.8289 21.12L65.0739 33.72C65.0739 33.9067 64.9689 34 64.7589 34H61.2589ZM77.3193 34C77.226 34 77.1793 33.9417 77.1793 33.825L77.2143 9.78C77.2143 9.68667 77.261 9.64 77.3543 9.64H88.5893C88.6826 9.64 88.7293 9.69833 88.7293 9.815V13.735C88.7293 13.8283 88.6826 13.875 88.5893 13.875H81.4143V19.335H88.5893C88.6826 19.335 88.7293 19.3817 88.7293 19.475L88.7643 23.43C88.7643 23.5233 88.7176 23.57 88.6243 23.57H81.4143V29.695H88.6243C88.7176 29.695 88.7643 29.7533 88.7643 29.87V33.86C88.7643 33.9533 88.7176 34 88.6243 34H77.3193ZM92.0516 34C91.9349 34 91.8766 33.9417 91.8766 33.825L91.9466 9.78C91.9466 9.68667 91.9932 9.64 92.0866 9.64H98.8066C100.953 9.64 102.645 10.2933 103.882 11.6C105.142 12.9067 105.772 14.68 105.772 16.92C105.772 18.5767 105.445 20.0117 104.792 21.225C104.138 22.4383 103.287 23.3717 102.237 24.025C101.187 24.6783 100.043 25.005 98.8066 25.005H96.1466V33.825C96.1466 33.9417 96.0882 34 95.9716 34H92.0516ZM96.1466 20.77H98.8066C99.5532 20.77 100.195 20.42 100.732 19.72C101.292 18.9967 101.572 18.0633 101.572 16.92C101.572 16.01 101.327 15.2633 100.837 14.68C100.347 14.0967 99.6699 13.805 98.8066 13.805L96.1466 13.84V20.77ZM108.321 34C108.204 34 108.146 33.9417 108.146 33.825L108.181 9.78C108.181 9.68667 108.228 9.64 108.321 9.64H112.241C112.334 9.64 112.381 9.68667 112.381 9.78L112.416 33.825C112.416 33.9417 112.369 34 112.276 34H108.321ZM115.81 34C115.623 34 115.53 33.9183 115.53 33.755L115.495 9.92C115.495 9.73333 115.588 9.64 115.775 9.64H118.925L124.84 23.43L124.665 9.92C124.665 9.73333 124.77 9.64 124.98 9.64H128.445C128.585 9.64 128.655 9.73333 128.655 9.92L128.69 33.79C128.69 33.93 128.631 34 128.515 34H125.435L119.38 21.12L119.625 33.72C119.625 33.9067 119.52 34 119.31 34H115.81Z" fill="#453741"/>
<path d="M83.5316 132.566C89.2719 130.986 94.1924 126.063 97.2105 118.88L94.8231 116.563C92.1797 122.855 87.8702 127.167 82.8425 128.551L83.5316 132.566Z" fill="#453741"/>
<path d="M82.3328 129.096C86.8499 127.876 90.9321 124.671 94.0046 119.93C97.0771 115.189 98.9851 109.153 99.4598 102.67C99.9346 96.1877 98.9522 89.5858 96.651 83.7941C94.3498 78.0025 90.8457 73.313 86.6323 70.386L85.4911 73.8595C89.1814 76.4231 92.2504 80.5304 94.2659 85.603C96.2814 90.6756 97.1418 96.4578 96.726 102.136C96.3102 107.813 94.6391 113.1 91.9481 117.252C89.2571 121.404 85.6817 124.212 81.7254 125.28L82.3328 129.096Z" fill="#453741"/>
<path d="M88.671 140.449C94.6005 138.243 99.4962 132.612 102.281 124.796L99.6593 122.598C97.2201 129.443 92.9322 134.375 87.7389 136.308L88.671 140.449Z" fill="#453741"/>
<path d="M85.5301 136.77C91.2704 135.19 96.1909 130.267 99.209 123.084L96.8216 120.768C94.1782 127.059 89.8686 131.371 84.841 132.755L85.5301 136.77Z" fill="#453741"/>
<path d="M91.4949 78.003C92.3906 63.3827 80.2048 65.8347 74 68.8882L91.4949 78.003Z" fill="#CFD186" fill-opacity="0.48"/>
<path d="M94.246 86.0857C92.5763 82.8173 92.162 78.9974 93.0616 75.1637C93.9612 71.3301 96.1293 67.6759 99.2606 64.7158C102.392 61.7556 106.329 59.6387 110.516 58.663C114.704 57.6873 118.932 57.9021 122.604 59.2771L121.379 61.4063C118.162 60.202 114.46 60.0139 110.792 60.8685C107.124 61.723 103.676 63.5771 100.933 66.1697C98.1909 68.7624 96.292 71.9629 95.5041 75.3205C94.7162 78.6782 95.079 82.0239 96.5414 84.8864L94.246 86.0857Z" fill="#453741"/>
<path d="M136.231 70.4331C129.978 57.1869 118.043 53.7407 114.074 59.4039L136.231 70.4331Z" fill="#CFD186" fill-opacity="0.48"/>
</g>
<defs>
<clipPath id="clip0_13_3">
<rect width="153" height="153" fill="white"/>
</clipPath>
</defs>
</svg>
