<svg width="153" height="153" viewBox="0 0 153 153" fill="none" xmlns="http://www.w3.org/2000/svg">
<g clip-path="url(#clip0_13_3)">
<rect width="153" height="153" fill="none"/>
<path d="M46.105 131.35C41.245 131.35 36.835 130.135 32.875 127.705C28.915 125.275 25.72 122.035 23.29 117.985C20.95 113.845 19.78 109.255 19.78 104.215V61.42C19.78 56.56 20.95 52.105 23.29 48.055C25.72 43.915 28.915 40.63 32.875 38.2C36.925 35.77 41.335 34.555 46.105 34.555C51.055 34.555 55.51 35.77 59.47 38.2C63.52 40.54 66.715 43.735 69.055 47.785C71.395 51.835 72.565 56.38 72.565 61.42V67.63C72.565 67.99 72.34 68.17 71.89 68.17H56.77C56.41 68.17 56.23 67.99 56.23 67.63V62.5C56.23 59.08 55.24 56.245 53.26 53.995C51.37 51.745 48.985 50.62 46.105 50.62C43.495 50.62 41.155 51.7 39.085 53.86C37.105 56.02 36.115 58.54 36.115 61.42V104.215C36.115 107.185 37.105 109.75 39.085 111.91C41.065 113.98 43.405 115.015 46.105 115.015C48.985 115.015 51.37 113.98 53.26 111.91C55.24 109.84 56.23 107.275 56.23 104.215V97.6H46.78C46.33 97.6 46.105 97.375 46.105 96.925V81.805C46.105 81.355 46.33 81.13 46.78 81.13H72.025C72.385 81.13 72.565 81.355 72.565 81.805V104.215C72.565 109.255 71.35 113.845 68.92 117.985C66.58 122.035 63.43 125.275 59.47 127.705C55.51 130.135 51.055 131.35 46.105 131.35ZM107.016 131.35C102.066 131.35 97.5664 130.135 93.5164 127.705C89.5564 125.185 86.4064 121.855 84.0664 117.715C81.7264 113.575 80.5564 108.94 80.5564 103.81L80.6914 61.69C80.6914 56.74 81.8164 52.24 84.0664 48.19C86.4064 44.05 89.5564 40.765 93.5164 38.335C97.5664 35.815 102.066 34.555 107.016 34.555C111.966 34.555 116.421 35.77 120.381 38.2C124.341 40.63 127.491 43.915 129.831 48.055C132.171 52.105 133.341 56.65 133.341 61.69V67.9C133.341 68.26 133.161 68.44 132.801 68.44H117.681C117.321 68.44 117.141 68.26 117.141 67.9V61.69C117.141 58.72 116.151 56.155 114.171 53.995C112.281 51.835 109.896 50.755 107.016 50.755C103.776 50.755 101.301 51.88 99.5914 54.13C97.8814 56.29 97.0264 58.81 97.0264 61.69V103.81C97.0264 107.14 97.9714 109.84 99.8614 111.91C101.841 113.98 104.226 115.015 107.016 115.015C109.896 115.015 112.281 113.89 114.171 111.64C116.151 109.3 117.141 106.69 117.141 103.81V97.6C117.141 97.24 117.321 97.06 117.681 97.06H132.936C133.296 97.06 133.476 97.24 133.476 97.6V103.81C133.476 108.94 132.261 113.575 129.831 117.715C127.491 121.855 124.341 125.185 120.381 127.705C116.421 130.135 111.966 131.35 107.016 131.35Z" fill="#5B8C5A"/>
<path d="M19.925 36.045C20.065 35.2283 20.2283 34.3883 20.415 33.525C20.6017 32.685 20.835 31.74 21.115 30.69C21.4183 29.6167 21.78 28.38 22.2 26.98C22.62 25.58 23.145 23.9233 23.775 22.01C23.4017 22.0333 23.0167 22.0683 22.62 22.115C22.2467 22.1617 21.8617 22.2083 21.465 22.255C21.4883 21.6717 21.7567 21.2167 22.27 20.89C22.8067 20.54 23.5067 20.2833 24.37 20.12C24.5333 19.63 24.6967 19.1283 24.86 18.615C25.0467 18.0783 25.2333 17.53 25.42 16.97C25.6067 16.3867 25.805 15.8033 26.015 15.22C26.225 14.6133 26.435 13.9833 26.645 13.33C26.8783 12.6767 27.1117 12.0117 27.345 11.335C27.4383 11.0783 27.5433 10.7633 27.66 10.39C27.7767 9.99333 27.835 9.62 27.835 9.27C27.835 9.08333 27.8 8.955 27.73 8.885C27.6833 8.815 27.555 8.78 27.345 8.78C26.785 8.78 26.2367 9.01333 25.7 9.48C25.1867 9.92333 24.72 10.495 24.3 11.195C23.9033 11.895 23.5883 12.6183 23.355 13.365C23.1217 14.1117 23.005 14.7767 23.005 15.36C23.005 15.57 23.0167 15.78 23.04 15.99C23.0867 16.2 23.1333 16.3867 23.18 16.55C22.41 16.55 21.8617 16.3633 21.535 15.99C21.2317 15.5933 21.08 15.115 21.08 14.555C21.08 13.7617 21.3133 12.9683 21.78 12.175C22.2467 11.3817 22.8417 10.6583 23.565 10.005C24.3117 9.32833 25.0817 8.79167 25.875 8.395C26.6917 7.99833 27.4267 7.8 28.08 7.8C28.71 7.8 29.13 7.975 29.34 8.325C29.5733 8.675 29.69 9.06 29.69 9.48C29.69 9.73667 29.655 9.99333 29.585 10.25C29.5383 10.5067 29.48 10.7517 29.41 10.985L26.68 19.875C27.0067 19.8517 27.3333 19.84 27.66 19.84C28.01 19.8167 28.36 19.805 28.71 19.805C29.8067 19.805 30.845 19.84 31.825 19.91C32.8283 19.9567 33.7733 20.0267 34.66 20.12C35.1267 18.6267 35.5817 17.1567 36.025 15.71C36.4917 14.2633 36.9117 13.0033 37.285 11.93C37.6817 10.8333 37.985 10.0633 38.195 9.62C38.2883 9.43333 38.4167 9.2 38.58 8.92C38.7433 8.64 38.9533 8.38333 39.21 8.15C39.49 7.91667 39.7933 7.8 40.12 7.8C39.7933 8.66333 39.42 9.77167 39 11.125C38.58 12.455 38.1483 13.9133 37.705 15.5C37.285 17.0867 36.865 18.6733 36.445 20.26C36.9117 20.2833 37.355 20.3183 37.775 20.365C38.2183 20.3883 38.65 20.4 39.07 20.4C38.5567 20.9367 38.055 21.2633 37.565 21.38C37.075 21.4733 36.5967 21.52 36.13 21.52C35.92 22.3833 35.7217 23.2233 35.535 24.04C35.3483 24.8333 35.185 25.5917 35.045 26.315C34.625 28.2983 34.3217 29.99 34.135 31.39C33.9717 32.79 33.89 33.9217 33.89 34.785C33.89 35.065 33.89 35.2983 33.89 35.485C33.9133 35.695 33.9367 35.8817 33.96 36.045C33.05 35.9517 32.42 35.695 32.07 35.275C31.72 34.855 31.545 34.2017 31.545 33.315C31.545 32.7083 31.615 31.95 31.755 31.04C31.895 30.1067 32.105 29.1033 32.385 28.03C32.5717 27.33 32.8283 26.4083 33.155 25.265C33.4817 24.0983 33.8433 22.8617 34.24 21.555C32.8167 21.555 31.6267 21.5667 30.67 21.59C29.7133 21.6133 28.885 21.6367 28.185 21.66C27.485 21.6833 26.785 21.73 26.085 21.8C25.665 23.1533 25.245 24.495 24.825 25.825C24.405 27.155 24.02 28.38 23.67 29.5C23.32 30.5967 23.0283 31.53 22.795 32.3C22.5617 33.07 22.41 33.5717 22.34 33.805C22.1067 34.5983 21.7333 35.17 21.22 35.52C20.73 35.87 20.2983 36.045 19.925 36.045ZM42.5271 34.54C41.1037 34.54 40.0304 34.1433 39.3071 33.35C38.6071 32.58 38.2571 31.6233 38.2571 30.48C38.2571 29.43 38.5137 28.3217 39.0271 27.155C39.5637 25.9883 40.2637 24.8917 41.1271 23.865C42.0137 22.8383 42.9821 22.01 44.0321 21.38C45.0821 20.7267 46.1204 20.4 47.1471 20.4C47.6837 20.4 48.1737 20.54 48.6171 20.82C49.0837 21.1 49.3171 21.6717 49.3171 22.535C49.3171 23.4217 49.0487 24.2617 48.5121 25.055C47.9987 25.825 47.3104 26.5133 46.4471 27.12C45.6071 27.7267 44.6737 28.2283 43.6471 28.625C42.6437 28.9983 41.6404 29.2317 40.6371 29.325C40.5904 29.5583 40.5554 29.78 40.5321 29.99C40.5087 30.2 40.4971 30.3983 40.4971 30.585C40.4971 30.935 40.5321 31.285 40.6021 31.635C40.6954 31.985 40.8471 32.3117 41.0571 32.615C41.2671 32.895 41.5471 33.1167 41.8971 33.28C42.2704 33.4433 42.7254 33.525 43.2621 33.525C44.2654 33.525 45.2571 33.245 46.2371 32.685C47.2171 32.1017 48.1271 31.3433 48.9671 30.41C49.8071 29.4767 50.5187 28.45 51.1021 27.33L51.5221 27.645C50.8921 29.045 50.0871 30.2583 49.1071 31.285C48.1504 32.3117 47.1004 33.105 45.9571 33.665C44.8371 34.2483 43.6937 34.54 42.5271 34.54ZM40.8121 28.66C41.4421 28.45 42.1537 28.1467 42.9471 27.75C43.7404 27.33 44.4987 26.84 45.2221 26.28C45.9687 25.72 46.5754 25.1017 47.0421 24.425C47.5321 23.7483 47.7771 23.0367 47.7771 22.29C47.7771 22.0333 47.7304 21.835 47.6371 21.695C47.5437 21.555 47.3454 21.485 47.0421 21.485C46.4821 21.485 45.8871 21.7067 45.2571 22.15C44.6271 22.57 44.0204 23.13 43.4371 23.83C42.8537 24.53 42.3287 25.3 41.8621 26.14C41.3954 26.98 41.0454 27.82 40.8121 28.66ZM61.7073 33.7C60.8907 33.7 60.2723 33.49 59.8523 33.07C59.4557 32.65 59.2573 32.1133 59.2573 31.46C59.2573 30.97 59.339 30.4567 59.5023 29.92C59.689 29.3833 59.864 28.835 60.0273 28.275C60.1907 27.6917 60.2723 27.1317 60.2723 26.595C60.2723 25.9417 60.1323 25.4983 59.8523 25.265C59.5957 25.0083 59.269 24.88 58.8723 24.88C58.149 24.88 57.414 25.1833 56.6673 25.79C55.9207 26.3733 55.1973 27.1317 54.4973 28.065C53.7973 28.975 53.144 29.92 52.5373 30.9C51.9307 31.88 51.394 32.755 50.9273 33.525C50.554 33.525 50.204 33.455 49.8773 33.315C49.5273 33.1983 49.259 33.0117 49.0723 32.755C49.0723 32.6383 49.2007 32.2767 49.4573 31.67C49.6907 31.0633 49.9707 30.3167 50.2973 29.43C50.624 28.5433 50.9157 27.6333 51.1723 26.7C51.429 25.7667 51.5573 24.915 51.5573 24.145C51.6973 23.9817 51.919 23.8183 52.2223 23.655C52.5257 23.4917 52.8407 23.41 53.1673 23.41C53.7973 23.41 54.1123 23.7133 54.1123 24.32C54.1123 24.6933 54.0073 25.3233 53.7973 26.21C53.5873 27.0733 53.319 27.9833 52.9923 28.94C53.6223 27.9833 54.3223 27.0383 55.0923 26.105C55.8857 25.1483 56.7257 24.355 57.6123 23.725C58.499 23.095 59.3857 22.78 60.2723 22.78C61.1823 22.78 61.8357 23.1067 62.2323 23.76C62.6523 24.4133 62.8623 25.1367 62.8623 25.93C62.8623 26.6533 62.7457 27.33 62.5123 27.96C62.279 28.5667 62.034 29.1617 61.7773 29.745C61.544 30.305 61.4273 30.8767 61.4273 31.46C61.4273 31.95 61.5207 32.3 61.7073 32.51C61.9173 32.6967 62.174 32.79 62.4773 32.79C63.0607 32.79 63.644 32.5217 64.2273 31.985C64.8107 31.425 65.3707 30.725 65.9073 29.885C66.4673 29.045 66.9573 28.1933 67.3773 27.33L67.7623 27.785C67.2723 28.9283 66.724 29.9433 66.1173 30.83C65.5107 31.7167 64.8457 32.4167 64.1223 32.93C63.399 33.4433 62.594 33.7 61.7073 33.7ZM78.0111 33.7C77.1944 33.7 76.5761 33.49 76.1561 33.07C75.7594 32.65 75.5611 32.1133 75.5611 31.46C75.5611 30.97 75.6427 30.4567 75.8061 29.92C75.9927 29.3833 76.1677 28.835 76.3311 28.275C76.4944 27.6917 76.5761 27.1317 76.5761 26.595C76.5761 25.9417 76.4361 25.4983 76.1561 25.265C75.8994 25.0083 75.5727 24.88 75.1761 24.88C74.4527 24.88 73.7177 25.1833 72.9711 25.79C72.2244 26.3733 71.5011 27.1317 70.8011 28.065C70.1011 28.975 69.4477 29.92 68.8411 30.9C68.2344 31.88 67.6977 32.755 67.2311 33.525C66.8577 33.525 66.5077 33.455 66.1811 33.315C65.8311 33.1983 65.5627 33.0117 65.3761 32.755C65.3761 32.6383 65.5044 32.2767 65.7611 31.67C65.9944 31.0633 66.2744 30.3167 66.6011 29.43C66.9277 28.5433 67.2194 27.6333 67.4761 26.7C67.7327 25.7667 67.8611 24.915 67.8611 24.145C68.0011 23.9817 68.2227 23.8183 68.5261 23.655C68.8294 23.4917 69.1444 23.41 69.4711 23.41C70.1011 23.41 70.4161 23.7133 70.4161 24.32C70.4161 24.6933 70.3111 25.3233 70.1011 26.21C69.8911 27.0733 69.6227 27.9833 69.2961 28.94C69.9261 27.9833 70.6261 27.0383 71.3961 26.105C72.1894 25.1483 73.0294 24.355 73.9161 23.725C74.8027 23.095 75.6894 22.78 76.5761 22.78C77.4861 22.78 78.1394 23.1067 78.5361 23.76C78.9561 24.4133 79.1661 25.1367 79.1661 25.93C79.1661 26.6533 79.0494 27.33 78.8161 27.96C78.5827 28.5667 78.3377 29.1617 78.0811 29.745C77.8477 30.305 77.7311 30.8767 77.7311 31.46C77.7311 31.95 77.8244 32.3 78.0111 32.51C78.2211 32.6967 78.4777 32.79 78.7811 32.79C79.3644 32.79 79.9477 32.5217 80.5311 31.985C81.1144 31.425 81.6744 30.725 82.2111 29.885C82.7711 29.045 83.2611 28.1933 83.6811 27.33L84.0661 27.785C83.5761 28.9283 83.0277 29.9433 82.4211 30.83C81.8144 31.7167 81.1494 32.4167 80.4261 32.93C79.7027 33.4433 78.8977 33.7 78.0111 33.7ZM86.7898 34.54C85.3664 34.54 84.2931 34.1433 83.5698 33.35C82.8698 32.58 82.5198 31.6233 82.5198 30.48C82.5198 29.43 82.7764 28.3217 83.2898 27.155C83.8264 25.9883 84.5264 24.8917 85.3898 23.865C86.2764 22.8383 87.2448 22.01 88.2948 21.38C89.3448 20.7267 90.3831 20.4 91.4098 20.4C91.9464 20.4 92.4364 20.54 92.8798 20.82C93.3464 21.1 93.5798 21.6717 93.5798 22.535C93.5798 23.4217 93.3114 24.2617 92.7748 25.055C92.2614 25.825 91.5731 26.5133 90.7098 27.12C89.8698 27.7267 88.9364 28.2283 87.9098 28.625C86.9064 28.9983 85.9031 29.2317 84.8998 29.325C84.8531 29.5583 84.8181 29.78 84.7948 29.99C84.7714 30.2 84.7598 30.3983 84.7598 30.585C84.7598 30.935 84.7948 31.285 84.8648 31.635C84.9581 31.985 85.1098 32.3117 85.3198 32.615C85.5298 32.895 85.8098 33.1167 86.1598 33.28C86.5331 33.4433 86.9881 33.525 87.5248 33.525C88.5281 33.525 89.5198 33.245 90.4998 32.685C91.4798 32.1017 92.3898 31.3433 93.2298 30.41C94.0698 29.4767 94.7814 28.45 95.3648 27.33L95.7848 27.645C95.1548 29.045 94.3498 30.2583 93.3698 31.285C92.4131 32.3117 91.3631 33.105 90.2198 33.665C89.0998 34.2483 87.9564 34.54 86.7898 34.54ZM85.0748 28.66C85.7048 28.45 86.4164 28.1467 87.2098 27.75C88.0031 27.33 88.7614 26.84 89.4848 26.28C90.2314 25.72 90.8381 25.1017 91.3048 24.425C91.7948 23.7483 92.0398 23.0367 92.0398 22.29C92.0398 22.0333 91.9931 21.835 91.8998 21.695C91.8064 21.555 91.6081 21.485 91.3048 21.485C90.7448 21.485 90.1498 21.7067 89.5198 22.15C88.8898 22.57 88.2831 23.13 87.6998 23.83C87.1164 24.53 86.5914 25.3 86.1248 26.14C85.6581 26.98 85.3081 27.82 85.0748 28.66ZM92.46 42.8C92.2734 42.8 92.0984 42.695 91.935 42.485C91.7484 42.2983 91.6084 42.0883 91.515 41.855C91.4217 41.645 91.375 41.5167 91.375 41.47C91.7017 40.3267 92.0284 39.3 92.355 38.39C92.6584 37.5033 92.9734 36.5817 93.3 35.625C93.6034 34.6917 93.9067 33.595 94.21 32.335C94.5134 31.0517 94.8284 29.465 95.155 27.575C95.4817 25.685 95.8084 23.34 96.135 20.54C96.1584 20.33 96.205 20.1783 96.275 20.085C96.345 19.9917 96.52 19.945 96.8 19.945C97.4067 19.945 97.8384 20.12 98.095 20.47C98.3517 20.7967 98.48 21.1583 98.48 21.555C98.48 21.8817 98.41 22.465 98.27 23.305C98.13 24.145 97.9317 25.1367 97.675 26.28C98.0717 25.51 98.5617 24.7283 99.145 23.935C99.7517 23.1417 100.44 22.4767 101.21 21.94C101.98 21.4033 102.82 21.135 103.73 21.135C104.757 21.135 105.597 21.5083 106.25 22.255C106.927 22.9783 107.265 23.935 107.265 25.125C107.265 26.035 107.055 27.0033 106.635 28.03C106.238 29.0333 105.667 29.99 104.92 30.9C104.197 31.7867 103.333 32.51 102.33 33.07C101.327 33.63 100.218 33.91 99.005 33.91C98.3984 33.91 97.9084 33.84 97.535 33.7C97.1617 33.56 96.975 33.42 96.975 33.28C96.975 33.1867 97.0567 33.1283 97.22 33.105C97.4067 33.105 97.6167 33.105 97.85 33.105C98.7834 33.105 99.67 32.8833 100.51 32.44C101.373 31.9733 102.143 31.3667 102.82 30.62C103.497 29.8733 104.022 29.045 104.395 28.135C104.792 27.225 104.99 26.3267 104.99 25.44C104.99 24.6933 104.827 24.0633 104.5 23.55C104.197 23.0133 103.695 22.745 102.995 22.745C102.388 22.745 101.782 22.9433 101.175 23.34C100.592 23.7133 100.032 24.2033 99.495 24.81C98.9817 25.3933 98.515 26.0117 98.095 26.665C97.6984 27.295 97.395 27.8667 97.185 28.38C96.765 30.13 96.345 31.81 95.925 33.42C95.505 35.0533 95.0967 36.5233 94.7 37.83C94.3267 39.16 93.9884 40.245 93.685 41.085C93.3584 41.925 93.09 42.4383 92.88 42.625C92.7634 42.7417 92.6234 42.8 92.46 42.8ZM110.857 33.91C109.947 33.91 109.27 33.6183 108.827 33.035C108.384 32.475 108.162 31.7867 108.162 30.97C108.162 30.4333 108.255 29.7567 108.442 28.94C108.652 28.1233 108.92 27.2717 109.247 26.385C109.574 25.475 109.947 24.6233 110.367 23.83C110.81 23.0367 111.277 22.395 111.767 21.905C112.257 21.3917 112.735 21.135 113.202 21.135C113.412 21.135 113.587 21.205 113.727 21.345C113.89 21.4617 113.972 21.6483 113.972 21.905C113.972 22.185 113.785 22.64 113.412 23.27C113.062 23.9 112.642 24.6233 112.152 25.44C111.662 26.2567 111.23 27.12 110.857 28.03C110.507 28.9167 110.332 29.7683 110.332 30.585C110.332 31.425 110.472 31.985 110.752 32.265C111.032 32.545 111.464 32.685 112.047 32.685C112.84 32.685 113.68 32.2883 114.567 31.495C115.477 30.7017 116.434 29.3133 117.437 27.33L117.752 27.68C117.075 29.6867 116.095 31.2267 114.812 32.3C113.552 33.3733 112.234 33.91 110.857 33.91ZM115.057 17.88C114.684 17.88 114.345 17.7867 114.042 17.6C113.762 17.4133 113.622 17.1217 113.622 16.725C113.622 16.235 113.902 15.815 114.462 15.465C115.045 15.0917 115.617 14.905 116.177 14.905C116.527 14.905 116.807 14.9867 117.017 15.15C117.227 15.3133 117.332 15.5933 117.332 15.99C117.332 16.4333 117.087 16.865 116.597 17.285C116.13 17.6817 115.617 17.88 115.057 17.88ZM128.084 33.7C127.268 33.7 126.649 33.49 126.229 33.07C125.833 32.65 125.634 32.1133 125.634 31.46C125.634 30.97 125.716 30.4567 125.879 29.92C126.066 29.3833 126.241 28.835 126.404 28.275C126.568 27.6917 126.649 27.1317 126.649 26.595C126.649 25.9417 126.509 25.4983 126.229 25.265C125.973 25.0083 125.646 24.88 125.249 24.88C124.526 24.88 123.791 25.1833 123.044 25.79C122.298 26.3733 121.574 27.1317 120.874 28.065C120.174 28.975 119.521 29.92 118.914 30.9C118.308 31.88 117.771 32.755 117.304 33.525C116.931 33.525 116.581 33.455 116.254 33.315C115.904 33.1983 115.636 33.0117 115.449 32.755C115.449 32.6383 115.578 32.2767 115.834 31.67C116.068 31.0633 116.348 30.3167 116.674 29.43C117.001 28.5433 117.293 27.6333 117.549 26.7C117.806 25.7667 117.934 24.915 117.934 24.145C118.074 23.9817 118.296 23.8183 118.599 23.655C118.903 23.4917 119.218 23.41 119.544 23.41C120.174 23.41 120.489 23.7133 120.489 24.32C120.489 24.6933 120.384 25.3233 120.174 26.21C119.964 27.0733 119.696 27.9833 119.369 28.94C119.999 27.9833 120.699 27.0383 121.469 26.105C122.263 25.1483 123.103 24.355 123.989 23.725C124.876 23.095 125.763 22.78 126.649 22.78C127.559 22.78 128.213 23.1067 128.609 23.76C129.029 24.4133 129.239 25.1367 129.239 25.93C129.239 26.6533 129.123 27.33 128.889 27.96C128.656 28.5667 128.411 29.1617 128.154 29.745C127.921 30.305 127.804 30.8767 127.804 31.46C127.804 31.95 127.898 32.3 128.084 32.51C128.294 32.6967 128.551 32.79 128.854 32.79C129.438 32.79 130.021 32.5217 130.604 31.985C131.188 31.425 131.748 30.725 132.284 29.885C132.844 29.045 133.334 28.1933 133.754 27.33L134.139 27.785C133.649 28.9283 133.101 29.9433 132.494 30.83C131.888 31.7167 131.223 32.4167 130.499 32.93C129.776 33.4433 128.971 33.7 128.084 33.7Z" fill="#453741"/>
<path d="M85.7252 123.459C91.4417 121.795 96.2893 116.8 99.2017 109.573L96.7806 107.292C94.2298 113.621 89.984 117.996 84.9772 119.454L85.7252 123.459Z" fill="#453741"/>
<path d="M84.4755 120.006C88.9743 118.721 93.009 115.456 96.0116 110.67C99.0142 105.885 100.833 99.8214 101.213 93.3325C101.592 86.8437 100.513 80.2569 98.1272 74.4996C95.7413 68.7424 92.1687 64.1048 87.9128 61.24L86.8227 64.7299C90.5503 67.2391 93.6792 71.3009 95.7689 76.3433C97.8587 81.3857 98.8039 87.1548 98.4715 92.838C98.1391 98.5212 96.5458 103.832 93.916 108.023C91.2862 112.214 87.7524 115.074 83.8122 116.2L84.4755 120.006Z" fill="#453741"/>
<path d="M90.9797 131.266C96.8762 128.972 101.689 123.27 104.359 115.414L101.705 113.255C99.3663 120.136 95.1513 125.13 89.9869 127.139L90.9797 131.266Z" fill="#453741"/>
<path d="M87.7851 127.633C93.5016 125.969 98.3493 120.974 101.262 113.748L98.8405 111.467C96.2897 117.796 92.0439 122.171 87.0372 123.628L87.7851 127.633Z" fill="#453741"/>
<path d="M92.9985 68.7623C93.6809 54.0997 81.507 56.7359 75.3347 59.8867L92.9985 68.7623Z" fill="#CFD186" fill-opacity="0.48"/>
<path d="M95.874 76.8206C94.1528 73.5703 93.6816 69.7488 94.5266 65.8944C95.3715 62.0399 97.4902 58.3465 100.584 55.3344C103.678 52.3224 107.591 50.1433 111.773 49.1041C115.955 48.0649 120.194 48.2179 123.894 49.5415L122.698 51.693C119.457 50.5337 115.744 50.3997 112.082 51.3098C108.419 52.22 104.992 54.1286 102.282 56.7667C99.5719 59.4048 97.7163 62.6396 96.9762 66.0155C96.2361 69.3915 96.6489 72.7385 98.1563 75.5852L95.874 76.8206Z" fill="#453741"/>
<path d="M137.712 60.5193C131.252 47.3387 119.242 44.0612 115.349 49.7941L137.712 60.5193Z" fill="#CFD186" fill-opacity="0.48"/>
</g>
<defs>
<clipPath id="clip0_13_3">
<rect width="153" height="153" fill="white"/>
</clipPath>
</defs>
</svg>
