<svg width="100" height="100" viewBox="0 0 100 100" fill="none" xmlns="http://www.w3.org/2000/svg">
<rect width="100" height="100" fill="none"/>
<path d="M46.33 24.5317C29.2606 26.5027 48.5837 60.0265 52.1779 62.3856C55.7722 64.7448 65.9281 64.915 58.2557 51.2133C50.5834 37.5117 63.3993 22.5607 46.33 24.5317Z" fill="#E3AAA6"/>
<path d="M46.8156 22.8346C39.9849 31.6601 49.2067 49.1939 54.1376 62.4247C54.1376 62.4247 57.8116 66.6556 60.1758 50.4972C62.5399 34.3388 53.6463 14.0091 46.8156 22.8346Z" fill="#E37C5B"/>
<path d="M66.5259 21.591C55.5792 24.4595 56.0629 48.9178 54.4501 65.7049C54.4501 65.7049 55.98 72.7992 66.1296 59.1999C76.2791 45.6006 77.4726 18.7225 66.5259 21.591Z" fill="#E3AAA6"/>
<path d="M21.9301 48.3222C39.2556 28.7404 43.934 63.7395 58.037 63.8031C58.037 63.8031 61.9865 68.6261 47.4178 68.1729C32.8492 67.7198 4.60469 67.904 21.9301 48.3222Z" fill="#E3AAA6"/>
<path d="M30.1884 57.0695C32.9787 56.1964 37.9964 56.9926 52.8206 60.2916" stroke="#E3645B" stroke-width="1.5"/>
<path d="M33.1401 45.0525C34.2504 49.6683 38.4104 54.6292 54.8923 61.1075" stroke="#E3645B" stroke-width="1.5"/>
<ellipse cx="32.2967" cy="44.7385" rx="2.5" ry="1.5" transform="rotate(11.9931 32.2967 44.7385)" fill="#E3645B"/>
<ellipse cx="38.2971" cy="41.4208" rx="1.68" ry="1.008" transform="rotate(11.9931 38.2971 41.4208)" fill="#E3645B"/>
<ellipse cx="40.1926" cy="46.9351" rx="1.68" ry="1.008" transform="rotate(11.9931 40.1926 46.9351)" fill="#E3645B"/>
<ellipse cx="46.1225" cy="43.0831" rx="1.68" ry="1.008" transform="rotate(11.9931 46.1225 43.0831)" fill="#E3645B"/>
<ellipse cx="25.2671" cy="58.5799" rx="2.5" ry="1.5" transform="rotate(11.9931 25.2671 58.5799)" fill="#E3645B"/>
</svg>
