<svg width="100" height="100" viewBox="0 0 100 100" fill="none" xmlns="http://www.w3.org/2000/svg">
<rect width="100" height="100" fill="none"/>
<path d="M48.5017 24.3321C65.6444 23.1594 52.7543 59.6432 49.6502 62.6178C46.546 65.5925 36.5912 67.6107 41.6381 52.7403C46.685 37.8698 31.359 25.5047 48.5017 24.3321Z" fill="#B67EAE"/>
<path d="M47.715 22.752C56.0396 30.1849 50.1676 49.1056 47.7305 63.0135C47.7305 63.0135 44.889 67.8431 39.6197 52.3861C34.3505 36.9291 39.3903 15.3191 47.715 22.752Z" fill="#8B4982"/>
<path d="M28.1081 25.1212C39.3943 25.9467 43.3759 50.0837 48.021 66.2957C48.021 66.2957 47.8095 73.5501 35.3516 62.0281C22.8937 50.5062 16.822 24.2957 28.1081 25.1212Z" fill="#B67EAE"/>
<path d="M76.8285 43.2778C56.2247 27.1812 58.0028 62.4468 44.1475 65.0795C44.1475 65.0795 41.1431 70.5414 55.3852 67.4409C69.6273 64.3404 97.4324 59.3743 76.8285 43.2778Z" fill="#B67EAE"/>
<path d="M70.3027 53.3835C67.4001 53.0336 62.6114 54.7309 48.6367 60.6761" stroke="#360B30" stroke-width="1.5"/>
<path d="M65.2105 42.1056C64.9599 46.8464 61.7736 52.4824 46.7484 61.8558" stroke="#360B30" stroke-width="1.5"/>
<ellipse cx="2.5" cy="1.5" rx="2.5" ry="1.5" transform="matrix(-0.923925 0.382575 0.382575 0.923925 67.7184 39.3008)" fill="#360B30"/>
<ellipse cx="1.68" cy="1.008" rx="1.68" ry="1.008" transform="matrix(-0.923925 0.382575 0.382575 0.923925 60.6445 37.9006)" fill="#360B30"/>
<ellipse cx="1.68" cy="1.008" rx="1.68" ry="1.008" transform="matrix(-0.923925 0.382575 0.382575 0.923925 59.7856 43.668)" fill="#360B30"/>
<ellipse cx="1.68" cy="1.008" rx="1.68" ry="1.008" transform="matrix(-0.923925 0.382575 0.382575 0.923925 53.2532 40.9612)" fill="#360B30"/>
<ellipse cx="2.5" cy="1.5" rx="2.5" ry="1.5" transform="matrix(-0.923925 0.382575 0.382575 0.923925 77.1527 51.6294)" fill="#360B30"/>
</svg>
